<svg width="2800" height="500" viewBox="0 0 2800 500" fill="none" xmlns="http://www.w3.org/2000/svg">
<path d="M2591.96 341.923V190.652H2621.37L2695.18 280.437L2768.63 190.652H2798.22V341.923H2764.1V237.815L2696.74 323.757H2689.61L2621.37 240.261V341.923H2591.96Z" fill="white"/>
<path d="M2338.53 341.923L2428 190.652H2463.33L2554.19 341.923H2512.94L2493.96 308.735H2394.23L2375.26 341.923H2338.53ZM2409.89 281.135H2478.99L2443.83 218.077L2409.89 281.135Z" fill="white"/>
<path d="M2144.63 341.923V190.652H2306.33V217.378H2181.7V250.392H2254.28V276.419H2181.7V313.626H2308.24V341.923H2144.63Z" fill="white"/>
<path d="M2032.88 216.679H1948.99V258.602H2032.88C2039.26 258.602 2043.62 257.67 2045.94 255.807C2048.37 253.944 2049.59 250.8 2049.59 246.374V228.907C2049.59 224.482 2048.37 221.337 2045.94 219.474C2043.62 217.611 2039.26 216.679 2032.88 216.679ZM1912.78 341.923V190.652H2048.55C2060.96 190.652 2069.96 192.981 2075.53 197.639C2081.1 202.181 2083.88 209.634 2083.88 219.998V255.632C2083.88 265.88 2081.1 273.275 2075.53 277.817C2069.96 282.358 2060.96 284.629 2048.55 284.629H2027.83L2099.55 341.923H2046.81L1983.62 284.629H1948.99V341.923H1912.78Z" fill="white"/>
<path d="M1792.33 217.727V341.923H1755.61V217.727H1682.85V190.652H1865.26V217.727H1792.33Z" fill="white"/>
<path d="M1586.77 189.604H1466.32V229.256H1581.03C1599.01 229.256 1611.14 232.342 1617.4 238.514C1623.79 244.686 1626.98 256.156 1626.98 272.926V298.254C1626.98 315.023 1623.79 326.494 1617.4 332.665C1611.14 338.837 1599.01 341.923 1581.03 341.923H1467.37C1449.38 341.923 1437.2 338.837 1430.81 332.665C1424.55 326.494 1421.41 315.023 1421.41 298.254V293.188L1459.19 285.328V307.162H1589.21V265.065H1474.5C1456.63 265.065 1444.56 261.979 1438.3 255.807C1432.03 249.635 1428.9 238.165 1428.9 221.396V200.958C1428.9 184.189 1432.03 172.719 1438.3 166.547C1444.56 160.375 1456.63 157.289 1474.5 157.289H1578.94C1596.23 157.289 1608.12 160.258 1614.62 166.197C1621.23 172.136 1624.54 182.675 1624.54 197.814V201.657L1586.77 210.566V189.604Z" fill="white"/>
<path d="M1165.88 343.711V192.44H1191.12L1319.05 292.88V192.44H1352.3V343.711H1326.89L1199.3 241.699V343.711H1165.88Z" fill="white"/>
<path d="M949.006 343.711V192.44H1110.71V219.166H986.08V252.18H1058.66V278.207H986.08V315.413H1112.62V343.711H949.006Z" fill="white"/>
<path d="M725.166 343.711V192.44H860.932C873.464 192.44 882.457 194.769 887.911 199.427C893.481 203.969 896.266 211.422 896.266 221.786V255.324C896.266 265.688 893.481 273.2 887.911 277.858C882.341 282.399 873.348 284.67 860.932 284.67H761.371V343.711H725.166ZM845.267 218.467H761.371V258.643H845.267C851.649 258.643 856 257.711 858.321 255.848C860.758 253.985 861.976 250.841 861.976 246.416V230.695C861.976 226.269 860.758 223.125 858.321 221.262C856 219.399 851.649 218.467 845.267 218.467Z" fill="white"/>
<path d="M421.782 202.746C421.782 185.977 424.915 174.506 431.182 168.335C437.448 162.163 449.516 159.077 467.386 159.077H602.803C620.673 159.077 632.741 162.163 639.007 168.335C645.274 174.506 648.407 185.977 648.407 202.746V300.042C648.407 316.927 645.274 328.456 639.007 334.628C632.741 340.684 620.673 343.711 602.803 343.711H467.386C449.516 343.711 437.448 340.684 431.182 334.628C424.915 328.456 421.782 316.927 421.782 300.042V202.746ZM464.601 308.95H605.762V192.091H464.601V308.95Z" fill="white"/>
<path fill-rule="evenodd" clip-rule="evenodd" d="M2591.96 341.923H2621.37V240.261L2689.61 323.757H2696.74L2764.1 237.815V341.923H2798.22V190.652H2768.63L2695.18 280.437L2621.37 190.652H2591.96V341.923ZM2695.17 277.622L2622.21 188.864H2590.18V343.712H2623.16V245.263L2688.76 325.546H2697.61L2762.32 242.983V343.712H2800V188.864H2767.79L2695.17 277.622Z" fill="white"/>
<path fill-rule="evenodd" clip-rule="evenodd" d="M2338.53 341.923H2375.26L2394.23 308.735H2493.96L2512.94 341.923H2554.19L2463.33 190.652H2428L2338.53 341.923ZM2492.93 310.523L2511.9 343.712H2557.34L2464.34 188.864H2426.98L2335.4 343.712H2376.29L2395.26 310.523H2492.93ZM2409.89 281.135L2443.83 218.077L2478.99 281.135H2409.89ZM2412.88 279.347H2475.95L2443.86 221.789L2412.88 279.347Z" fill="white"/>
<path fill-rule="evenodd" clip-rule="evenodd" d="M2144.63 341.923H2308.24V313.626H2181.7V276.419H2254.28V250.392H2181.7V217.378H2306.33V190.652H2144.63V341.923ZM2183.48 219.167H2308.11V188.864H2142.85V343.712H2310.03V311.837H2183.48V278.208H2256.07V248.603H2183.48V219.167Z" fill="white"/>
<path fill-rule="evenodd" clip-rule="evenodd" d="M2032.88 216.679C2039.26 216.679 2043.62 217.611 2045.94 219.474C2048.37 221.337 2049.59 224.482 2049.59 228.907V246.374C2049.59 250.8 2048.37 253.944 2045.94 255.807C2043.62 257.67 2039.26 258.602 2032.88 258.602H1948.99V216.679H2032.88ZM1950.77 218.468V256.813H2032.88C2036 256.813 2038.55 256.585 2040.56 256.154C2042.59 255.72 2043.96 255.103 2044.82 254.41L2044.86 254.384C2046.68 252.989 2047.81 250.499 2047.81 246.374V228.907C2047.81 224.782 2046.68 222.291 2044.86 220.897L2044.82 220.871C2043.96 220.178 2042.59 219.562 2040.56 219.127C2038.55 218.696 2036 218.468 2032.88 218.468H1950.77ZM1912.78 341.923H1948.99V284.629H1983.62L2046.81 341.923H2099.55L2027.83 284.629H2048.55C2060.96 284.629 2069.96 282.358 2075.53 277.817C2081.1 273.275 2083.88 265.88 2083.88 255.632V219.998C2083.88 209.634 2081.1 202.181 2075.53 197.639C2069.96 192.981 2060.96 190.652 2048.55 190.652H1912.78V341.923ZM2076.66 196.26C2070.61 191.204 2061.11 188.864 2048.55 188.864H1911V343.712H1950.77V286.418H1982.94L2046.12 343.712H2104.65L2032.94 286.418H2048.55C2061.1 286.418 2070.6 284.136 2076.65 279.205C2082.79 274.198 2085.66 266.181 2085.66 255.632V219.998C2085.66 209.347 2082.8 201.271 2076.66 196.26Z" fill="white"/>
<path fill-rule="evenodd" clip-rule="evenodd" d="M1792.33 217.727H1865.26V190.652H1682.85V217.727H1755.61V341.923H1792.33V217.727ZM1753.82 219.516V343.712H1794.12V219.516H1867.05V188.864H1681.07V219.516H1753.82Z" fill="white"/>
<path fill-rule="evenodd" clip-rule="evenodd" d="M1586.77 189.604V210.566L1624.54 201.657V197.814C1624.54 182.675 1621.23 172.136 1614.62 166.197C1608.12 160.258 1596.23 157.289 1578.94 157.289H1474.5C1456.63 157.289 1444.56 160.375 1438.3 166.547C1432.03 172.719 1428.9 184.189 1428.9 200.958V221.396C1428.9 238.165 1432.03 249.635 1438.3 255.807C1444.56 261.979 1456.63 265.065 1474.5 265.065H1589.21V307.162H1459.19V285.328L1421.41 293.188V298.254C1421.41 315.023 1424.55 326.494 1430.81 332.665C1437.2 338.837 1449.38 341.923 1467.37 341.923H1581.03C1599.01 341.923 1611.14 338.837 1617.4 332.665C1623.79 326.494 1626.98 315.023 1626.98 298.254V272.926C1626.98 256.156 1623.79 244.686 1617.4 238.514C1611.14 232.342 1599.01 229.256 1581.03 229.256H1466.32V189.604H1586.77ZM1468.1 191.393V227.467H1581.03C1599.06 227.467 1611.84 230.527 1618.65 237.232C1625.58 243.939 1628.76 256.062 1628.76 272.926V298.254C1628.76 315.119 1625.58 327.242 1618.65 333.949C1611.83 340.653 1599.05 343.712 1581.03 343.712H1467.37C1449.33 343.712 1436.5 340.648 1429.58 333.954L1429.57 333.942C1422.76 327.236 1419.63 315.116 1419.63 298.254V291.732L1460.97 283.13V305.374H1587.42V266.854H1474.5C1456.58 266.854 1443.86 263.791 1437.05 257.084C1430.24 250.377 1427.12 238.258 1427.12 221.396V200.958C1427.12 184.096 1430.24 171.977 1437.05 165.27C1443.86 158.563 1456.58 155.5 1474.5 155.5H1578.94C1596.3 155.5 1608.79 158.454 1615.81 164.87C1623 171.324 1626.32 182.511 1626.32 197.814V203.074L1584.99 212.823V191.393H1468.1Z" fill="white"/>
<path fill-rule="evenodd" clip-rule="evenodd" d="M1165.88 343.711H1199.3V241.699L1326.89 343.711H1352.3V192.44H1319.05V292.88L1191.12 192.44H1165.88V343.711ZM1317.27 289.21L1191.74 190.651H1164.1V345.5H1201.08V245.411L1326.26 345.5H1354.08V190.651H1317.27V289.21Z" fill="white"/>
<path fill-rule="evenodd" clip-rule="evenodd" d="M949.006 343.711H1112.62V315.413H986.08V278.207H1058.66V252.18H986.08V219.166H1110.71V192.44H949.006V343.711ZM987.863 220.955H1112.49V190.651H947.223V345.5H1114.4V313.625H987.863V279.996H1060.44V250.391H987.863V220.955Z" fill="white"/>
<path fill-rule="evenodd" clip-rule="evenodd" d="M725.166 343.711H761.371V284.67H860.932C873.348 284.67 882.341 282.399 887.911 277.858C893.481 273.2 896.266 265.688 896.266 255.324V221.786C896.266 211.422 893.481 203.969 887.911 199.427C882.457 194.769 873.464 192.44 860.932 192.44H725.166V343.711ZM889.052 198.053C883.108 192.986 873.59 190.651 860.932 190.651H723.384V345.5H763.153V286.459H860.932C873.487 286.459 882.987 284.177 889.035 279.246L889.052 279.232C895.179 274.108 898.048 265.985 898.048 255.324V221.786C898.048 211.138 895.185 203.064 889.052 198.053ZM845.267 218.467C851.649 218.467 856 219.399 858.321 221.262C860.758 223.125 861.976 226.269 861.976 230.695V246.416C861.976 250.841 860.758 253.985 858.321 255.848C856 257.711 851.649 258.643 845.267 258.643H761.371V218.467H845.267ZM763.153 220.256V256.854H845.267C848.382 256.854 850.932 256.626 852.945 256.195C854.973 255.761 856.345 255.144 857.208 254.451L857.241 254.425C859.064 253.031 860.194 250.54 860.194 246.416V230.695C860.194 226.57 859.065 224.079 857.241 222.685L857.207 222.659C856.344 221.966 854.973 221.349 852.945 220.915C850.932 220.484 848.382 220.256 845.267 220.256H763.153Z" fill="white"/>
<path fill-rule="evenodd" clip-rule="evenodd" d="M640.256 335.905L640.244 335.917C633.435 342.497 620.72 345.5 602.803 345.5H467.386C449.469 345.5 436.754 342.497 429.945 335.916L429.933 335.905C423.123 329.196 420 317.016 420 300.042V202.746C420 185.884 423.124 173.764 429.933 167.058C436.742 160.351 449.463 157.288 467.386 157.288H602.803C620.726 157.288 633.447 160.351 640.256 167.058C647.065 173.764 650.189 185.884 650.189 202.746V300.042C650.189 317.016 647.066 329.196 640.256 335.905ZM605.762 308.95H464.601V192.091H605.762V308.95ZM603.98 193.879H466.383V307.162H603.98V193.879ZM431.182 168.335C424.915 174.506 421.782 185.977 421.782 202.746V300.042C421.782 316.927 424.915 328.456 431.182 334.628C437.448 340.684 449.516 343.711 467.386 343.711H602.803C620.673 343.711 632.741 340.684 639.007 334.628C645.274 328.456 648.407 316.927 648.407 300.042V202.746C648.407 185.977 645.274 174.506 639.007 168.335C632.741 162.163 620.673 159.077 602.803 159.077H467.386C449.516 159.077 437.448 162.163 431.182 168.335Z" fill="white"/>
<path fill-rule="evenodd" clip-rule="evenodd" d="M0 263.34V357.375C0 373.172 16.5327 383.578 30.8627 376.8L58.3108 363.817L317.47 241.237L347.67 226.952C353.277 224.3 356.971 219.843 358.754 214.811L0 263.34Z" fill="#A2006F"/>
<path d="M347.67 188.102L317.47 173.817L58.3108 51.2365L30.8627 38.2538C16.5328 31.4758 0 41.8817 0 57.6791V147.211L358.754 200.242C356.971 195.211 353.277 190.754 347.67 188.102Z" fill="#FF47C5"/>
<path d="M0 147.211V263.34L358.754 214.811C360.415 210.121 360.415 204.932 358.754 200.242L0 147.211Z" fill="#E00099"/>
<path d="M317.47 398.21V241.237L58.3108 363.817V398.21C58.3108 410.566 67.3756 420.582 78.5576 420.582H162.717L150.954 482.103H127.15C122.677 482.103 119.051 486.109 119.051 491.051C119.051 495.994 122.677 500 127.15 500H248.631C253.103 500 256.729 495.994 256.729 491.051C256.729 486.109 253.103 482.103 248.631 482.103H224.827L213.064 420.582H297.223C308.405 420.582 317.47 410.566 317.47 398.21Z" fill="url(#paint0_linear_335_13324)"/>
<path d="M78.5576 0C67.3755 0 58.3108 10.016 58.3108 22.3714V51.2365L317.47 173.817V22.3714C317.47 10.016 308.405 0 297.223 0H78.5576Z" fill="url(#paint1_linear_335_13324)"/>
<defs>
<linearGradient id="paint0_linear_335_13324" x1="180" y1="0" x2="180" y2="500" gradientUnits="userSpaceOnUse">
<stop stop-color="white"/>
<stop offset="1" stop-color="#EBEAF0"/>
</linearGradient>
<linearGradient id="paint1_linear_335_13324" x1="180" y1="0" x2="180" y2="500" gradientUnits="userSpaceOnUse">
<stop stop-color="white"/>
<stop offset="1" stop-color="#EBEAF0"/>
</linearGradient>
</defs>
</svg>
