<svg width="391" height="101" viewBox="0 0 391 101" fill="none" xmlns="http://www.w3.org/2000/svg">
<path d="M361.964 62.3097V41.2724H366.07L376.37 53.7587L386.621 41.2724H390.751V62.3097H385.989V47.8314L376.588 59.7833H375.592L366.07 48.1715V62.3097H361.964Z" fill="#2C285A"/>
<path d="M326.594 62.3097L339.081 41.2724H344.012L356.693 62.3097H350.935L348.287 57.6941H334.368L331.72 62.3097H326.594ZM336.554 53.8559H346.198L341.291 45.0863L336.554 53.8559Z" fill="#2C285A"/>
<path d="M299.532 62.3097V41.2724H322.1V44.9892H304.707V49.5804H314.837V53.2H304.707V58.3743H322.367V62.3097H299.532Z" fill="#2C285A"/>
<path d="M283.937 44.892H272.228V50.7222H283.937C284.827 50.7222 285.435 50.5926 285.759 50.3335C286.099 50.0744 286.269 49.6371 286.269 49.0217V46.5925C286.269 45.977 286.099 45.5398 285.759 45.2807C285.435 45.0215 284.827 44.892 283.937 44.892ZM267.175 62.3097V41.2724H286.123C287.856 41.2724 289.111 41.5963 289.888 42.2441C290.666 42.8757 291.054 43.9122 291.054 45.3535V50.3092C291.054 51.7344 290.666 52.7627 289.888 53.3943C289.111 54.0259 287.856 54.3418 286.123 54.3418H283.232L293.241 62.3097H285.88L277.062 54.3418H272.228V62.3097H267.175Z" fill="#2C285A"/>
<path d="M250.365 45.0377V62.3097H245.239V45.0377H235.085V41.2724H260.543V45.0377H250.365Z" fill="#2C285A"/>
<path d="M221.675 41.1267H204.865V46.641H220.874C223.384 46.641 225.076 47.0702 225.951 47.9285C226.841 48.7869 227.287 50.3821 227.287 52.7142V56.2366C227.287 58.5686 226.841 60.1638 225.951 61.0222C225.076 61.8805 223.384 62.3097 220.874 62.3097H205.011C202.5 62.3097 200.8 61.8805 199.909 61.0222C199.035 60.1638 198.597 58.5686 198.597 56.2366V55.5321L203.869 54.4389V57.4755H222.015V51.621H206.006C203.512 51.621 201.828 51.1918 200.954 50.3335C200.079 49.4752 199.642 47.88 199.642 45.5479V42.7057C199.642 40.3736 200.079 38.7784 200.954 37.92C201.828 37.0617 203.512 36.6325 206.006 36.6325H220.582C222.995 36.6325 224.655 37.0455 225.562 37.8715C226.485 38.6974 226.947 40.163 226.947 42.2684V42.8028L221.675 44.0417V41.1267Z" fill="#2C285A"/>
<path d="M162.934 62.5583V41.521H166.456L184.311 55.4892V41.521H188.951V62.5583H185.405L167.598 48.3715V62.5583H162.934Z" fill="#2C285A"/>
<path d="M132.666 62.5583V41.521H155.233V45.2378H137.84V49.8291H147.97V53.4486H137.84V58.6229H155.501V62.5583H132.666Z" fill="#2C285A"/>
<path d="M101.425 62.5583V41.521H120.374C122.123 41.521 123.378 41.8449 124.139 42.4927C124.916 43.1243 125.305 44.1608 125.305 45.6022V50.2663C125.305 51.7077 124.916 52.7523 124.139 53.4001C123.362 54.0317 122.106 54.3475 120.374 54.3475H106.478V62.5583H101.425ZM118.187 45.1406H106.478V50.7279H118.187C119.078 50.7279 119.685 50.5983 120.009 50.3392C120.349 50.0801 120.519 49.6428 120.519 49.0274V46.8411C120.519 46.2257 120.349 45.7884 120.009 45.5293C119.685 45.2702 119.078 45.1406 118.187 45.1406Z" fill="#2C285A"/>
<path d="M59.0837 42.9543C59.0837 40.6222 59.521 39.027 60.3955 38.1687C61.27 37.3103 62.9543 36.8812 65.4483 36.8812H84.3479C86.8419 36.8812 88.5262 37.3103 89.4007 38.1687C90.2752 39.027 90.7125 40.6222 90.7125 42.9543V56.4852C90.7125 58.8335 90.2752 60.4368 89.4007 61.2951C88.5262 62.1372 86.8419 62.5583 84.3479 62.5583H65.4483C62.9543 62.5583 61.27 62.1372 60.3955 61.2951C59.521 60.4368 59.0837 58.8335 59.0837 56.4852V42.9543ZM65.0597 57.7241H84.7609V41.4725H65.0597V57.7241Z" fill="#2C285A"/>
<path fill-rule="evenodd" clip-rule="evenodd" d="M361.964 62.3097H366.07V48.1715L375.592 59.7833H376.588L385.989 47.8314V62.3097H390.751V41.2724H386.621L376.37 53.7587L366.07 41.2724H361.964V62.3097ZM376.369 53.3673L366.187 41.0236H361.715V62.5584H366.318V48.8671L375.474 60.032H376.709L385.741 48.55V62.5584H390.999V41.0236H386.503L376.369 53.3673Z" fill="#2C285A"/>
<path fill-rule="evenodd" clip-rule="evenodd" d="M326.594 62.3097H331.72L334.368 57.6941H348.287L350.935 62.3097H356.693L344.012 41.2724H339.081L326.594 62.3097ZM348.143 57.9429L350.791 62.5584H357.133L344.152 41.0236H338.939L326.157 62.5584H331.864L334.512 57.9429H348.143ZM336.554 53.8559L341.291 45.0863L346.198 53.8559H336.554ZM336.971 53.6071H345.774L341.295 45.6026L336.971 53.6071Z" fill="#2C285A"/>
<path fill-rule="evenodd" clip-rule="evenodd" d="M299.532 62.3097H322.367V58.3743H304.707V53.2H314.837V49.5804H304.707V44.9892H322.1V41.2724H299.532V62.3097ZM304.956 45.2379H322.349V41.0236H299.284V62.5584H322.616V58.1255H304.956V53.4488H315.086V49.3317H304.956V45.2379Z" fill="#2C285A"/>
<path fill-rule="evenodd" clip-rule="evenodd" d="M283.937 44.892C284.827 44.892 285.435 45.0215 285.759 45.2807C286.099 45.5398 286.269 45.977 286.269 46.5925V49.0217C286.269 49.6371 286.099 50.0744 285.759 50.3335C285.435 50.5926 284.827 50.7222 283.937 50.7222H272.228V44.892H283.937ZM272.477 45.1407V50.4734H283.937C284.371 50.4734 284.727 50.4417 285.008 50.3817C285.291 50.3213 285.483 50.2356 285.603 50.1392L285.608 50.1356C285.862 49.9416 286.02 49.5953 286.02 49.0217V46.5925C286.02 46.0188 285.862 45.6725 285.608 45.4785L285.603 45.475C285.483 45.3786 285.291 45.2928 285.008 45.2324C284.727 45.1725 284.371 45.1407 283.937 45.1407H272.477ZM267.175 62.3097H272.228V54.3418H277.062L285.88 62.3097H293.241L283.232 54.3418H286.123C287.856 54.3418 289.111 54.0259 289.888 53.3943C290.666 52.7627 291.054 51.7344 291.054 50.3092V45.3535C291.054 43.9122 290.666 42.8757 289.888 42.2441C289.111 41.5963 287.856 41.2724 286.123 41.2724H267.175V62.3097ZM290.047 42.0522C289.202 41.3491 287.876 41.0236 286.123 41.0236H266.926V62.5584H272.477V54.5905H276.966L285.784 62.5584H293.953L283.944 54.5905H286.123C287.875 54.5905 289.201 54.2732 290.045 53.5874C290.902 52.8911 291.303 51.7762 291.303 50.3092V45.3535C291.303 43.8723 290.903 42.7492 290.047 42.0522Z" fill="#2C285A"/>
<path fill-rule="evenodd" clip-rule="evenodd" d="M250.365 45.0377H260.543V41.2724H235.085V45.0377H245.239V62.3097H250.365V45.0377ZM244.99 45.2865V62.5584H250.613V45.2865H260.792V41.0236H234.836V45.2865H244.99Z" fill="#2C285A"/>
<path fill-rule="evenodd" clip-rule="evenodd" d="M221.675 41.1267V44.0417L226.947 42.8028V42.2684C226.947 40.163 226.485 38.6974 225.562 37.8715C224.655 37.0455 222.995 36.6325 220.582 36.6325H206.006C203.512 36.6325 201.828 37.0617 200.954 37.92C200.079 38.7784 199.642 40.3736 199.642 42.7057V45.5479C199.642 47.88 200.079 49.4752 200.954 50.3335C201.828 51.1918 203.512 51.621 206.006 51.621H222.015V57.4755H203.869V54.4389L198.597 55.5321V56.2366C198.597 58.5686 199.035 60.1638 199.909 61.0222C200.8 61.8805 202.5 62.3097 205.011 62.3097H220.874C223.384 62.3097 225.076 61.8805 225.951 61.0222C226.841 60.1638 227.287 58.5686 227.287 56.2366V52.7142C227.287 50.3821 226.841 48.7869 225.951 47.9285C225.076 47.0702 223.384 46.641 220.874 46.641H204.865V41.1267H221.675ZM205.114 41.3754V46.3923H220.874C223.39 46.3923 225.173 46.8178 226.124 47.7502C227.091 48.683 227.535 50.3689 227.535 52.7142V56.2366C227.535 58.582 227.091 60.268 226.124 61.2007C225.173 62.133 223.39 62.5584 220.874 62.5584H205.011C202.493 62.5584 200.703 62.1323 199.736 61.2013L199.735 61.1997C198.785 60.267 198.349 58.5816 198.349 56.2366V55.3296L204.118 54.1333V57.2267H221.766V51.8697H206.006C203.505 51.8697 201.73 51.4438 200.779 50.511C199.829 49.5783 199.393 47.8929 199.393 45.5479V42.7057C199.393 40.3606 199.829 38.6752 200.779 37.7425C201.73 36.8098 203.505 36.3838 206.006 36.3838H220.582C223.005 36.3838 224.748 36.7946 225.729 37.6869C226.731 38.5844 227.195 40.1401 227.195 42.2684V42.9999L221.426 44.3557V41.3754H205.114Z" fill="#2C285A"/>
<path fill-rule="evenodd" clip-rule="evenodd" d="M162.934 62.5583H167.598V48.3715L185.405 62.5583H188.951V41.521H184.311V55.4892L166.456 41.521H162.934V62.5583ZM184.063 54.9788L166.542 41.2723H162.685V62.8071H167.847V48.8878L185.318 62.8071H189.2V41.2723H184.063V54.9788Z" fill="#2C285A"/>
<path fill-rule="evenodd" clip-rule="evenodd" d="M132.666 62.5583H155.501V58.6229H137.84V53.4486H147.97V49.8291H137.84V45.2378H155.233V41.521H132.666V62.5583ZM138.089 45.4865H155.482V41.2723H132.417V62.8071H155.749V58.3742H138.089V53.6974H148.219V49.5803H138.089V45.4865Z" fill="#2C285A"/>
<path fill-rule="evenodd" clip-rule="evenodd" d="M101.425 62.5583H106.478V54.3475H120.374C122.106 54.3475 123.362 54.0317 124.139 53.4001C124.916 52.7523 125.305 51.7077 125.305 50.2663V45.6022C125.305 44.1608 124.916 43.1243 124.139 42.4927C123.378 41.8449 122.123 41.521 120.374 41.521H101.425V62.5583ZM124.298 42.3016C123.469 41.5969 122.14 41.2723 120.374 41.2723H101.177V62.8071H106.727V54.5962H120.374C122.126 54.5962 123.452 54.2789 124.296 53.5931L124.298 53.5912C125.153 52.8786 125.554 51.749 125.554 50.2663V45.6022C125.554 44.1214 125.154 42.9985 124.298 42.3016ZM118.187 45.1406C119.078 45.1406 119.685 45.2702 120.009 45.5293C120.349 45.7884 120.519 46.2257 120.519 46.8411V49.0274C120.519 49.6428 120.349 50.0801 120.009 50.3392C119.685 50.5983 119.078 50.7279 118.187 50.7279H106.478V45.1406H118.187ZM106.727 45.3894V50.4791H118.187C118.622 50.4791 118.978 50.4474 119.259 50.3874C119.542 50.3271 119.733 50.2413 119.854 50.145L119.858 50.1413C120.113 49.9474 120.271 49.601 120.271 49.0274V46.8411C120.271 46.2675 120.113 45.9211 119.858 45.7272L119.854 45.7236C119.733 45.6272 119.542 45.5415 119.259 45.4811C118.978 45.4211 118.622 45.3894 118.187 45.3894H106.727Z" fill="#2C285A"/>
<path fill-rule="evenodd" clip-rule="evenodd" d="M89.575 61.4726L89.5733 61.4743C88.623 62.3894 86.8485 62.8071 84.3479 62.8071H65.4483C62.9477 62.8071 61.1733 62.3894 60.223 61.4743L60.2213 61.4726C59.2708 60.5397 58.835 58.8459 58.835 56.4852V42.9543C58.835 40.6092 59.271 38.9238 60.2213 37.9912C61.1716 37.0584 62.947 36.6324 65.4483 36.6324H84.3479C86.8492 36.6324 88.6246 37.0584 89.575 37.9912C90.5252 38.9238 90.9613 40.6092 90.9613 42.9543V56.4852C90.9613 58.8459 90.5255 60.5397 89.575 61.4726ZM84.7609 57.7241H65.0597V41.4725H84.7609V57.7241ZM84.5121 41.7212H65.3084V57.4754H84.5121V41.7212ZM60.3955 38.1687C59.521 39.027 59.0837 40.6222 59.0837 42.9543V56.4852C59.0837 58.8335 59.521 60.4368 60.3955 61.2951C61.27 62.1372 62.9543 62.5583 65.4483 62.5583H84.3479C86.8419 62.5583 88.5262 62.1372 89.4007 61.2951C90.2752 60.4368 90.7125 58.8335 90.7125 56.4852V42.9543C90.7125 40.6222 90.2752 39.027 89.4007 38.1687C88.5262 37.3103 86.8419 36.8812 84.3479 36.8812H65.4483C62.9543 36.8812 61.27 37.3103 60.3955 38.1687Z" fill="#2C285A"/>
<path d="M24.7446 81.7186V71.2151H22.7447L20.7449 81.7186H24.7446Z" fill="url(#paint0_linear_334_10244)"/>
<path d="M24.7446 71.2151V81.7186H28.7442L26.7444 71.2151H24.7446Z" fill="url(#paint1_linear_334_10244)"/>
<path d="M40.7432 19.7331C40.7432 18.7527 40.0269 17.9579 39.1434 17.9579H10.3458C9.46221 17.9579 8.74593 18.7527 8.74593 19.7332V69.4399C8.74593 70.4203 9.46221 71.2151 10.3458 71.2151H22.7447H24.7446H26.7444H39.1434C40.0269 71.2151 40.7432 70.4203 40.7432 69.4399V19.7331Z" fill="url(#paint2_linear_334_10244)"/>
<path fill-rule="evenodd" clip-rule="evenodd" d="M7.67935 19.7332C7.67935 18.0991 8.87316 16.7744 10.3458 16.7744H39.1434C40.616 16.7744 41.8098 18.0991 41.8098 19.7331V69.4399C41.8098 71.074 40.616 72.3986 39.1434 72.3986H28.0599L29.609 80.5352H32.7439C33.3329 80.5352 33.8105 81.065 33.8105 81.7186C33.8105 82.3723 33.3329 82.9021 32.7439 82.9021H16.7452C16.1562 82.9021 15.6787 82.3723 15.6787 81.7186C15.6787 81.065 16.1562 80.5352 16.7452 80.5352H19.8801L21.4293 72.3986H10.3458C8.87316 72.3986 7.67935 71.074 7.67935 69.4399V19.7332ZM23.6095 72.3986L22.0604 80.5352H23.678V72.3986H23.6095ZM25.8111 72.3986V80.5352H27.4288L25.8796 72.3986H25.8111ZM10.3458 19.1414C10.0513 19.1414 9.8125 19.4063 9.8125 19.7332V69.4399C9.8125 69.7667 10.0513 70.0316 10.3458 70.0316H39.1434C39.4379 70.0316 39.6766 69.7667 39.6766 69.4399V19.7331C39.6766 19.4063 39.4379 19.1414 39.1434 19.1414H10.3458Z" fill="url(#paint3_linear_334_10244)"/>
<path fill-rule="evenodd" clip-rule="evenodd" d="M0 51.6026V64.0392C0 66.1285 2.17731 67.5047 4.06453 66.6083L45.787 46.7901C46.5254 46.4393 47.012 45.8498 47.2468 45.1844L0 51.6026Z" fill="#A2006F"/>
<path d="M45.787 41.6519L4.06453 21.8337C2.17731 20.9373 0 22.3135 0 24.4028V36.2439L47.2468 43.2576C47.012 42.5921 46.5254 42.0026 45.787 41.6519Z" fill="#FF47C5"/>
<path d="M0 36.2439V51.6026L47.2468 45.1844C47.4656 44.5641 47.4656 43.8778 47.2468 43.2576L0 36.2439Z" fill="#E00099"/>
<defs>
<linearGradient id="paint0_linear_334_10244" x1="23.7055" y1="16.7744" x2="23.7055" y2="82.9021" gradientUnits="userSpaceOnUse">
<stop stop-color="#423C7C"/>
<stop offset="1" stop-color="#262350"/>
</linearGradient>
<linearGradient id="paint1_linear_334_10244" x1="23.7055" y1="16.7744" x2="23.7055" y2="82.9021" gradientUnits="userSpaceOnUse">
<stop stop-color="#423C7C"/>
<stop offset="1" stop-color="#262350"/>
</linearGradient>
<linearGradient id="paint2_linear_334_10244" x1="23.7055" y1="16.7744" x2="23.7055" y2="82.9021" gradientUnits="userSpaceOnUse">
<stop stop-color="#423C7C"/>
<stop offset="1" stop-color="#262350"/>
</linearGradient>
<linearGradient id="paint3_linear_334_10244" x1="23.7055" y1="16.7744" x2="23.7055" y2="82.9021" gradientUnits="userSpaceOnUse">
<stop stop-color="#423C7C"/>
<stop offset="1" stop-color="#262350"/>
</linearGradient>
</defs>
</svg>
